<?xml version="1.0" encoding="UTF-8" standalone="no"?>
<!-- Created with Inkscape (http://www.inkscape.org/) -->

<svg
   width="211.7103mm"
   height="144.88257mm"
   viewBox="0 0 211.7103 144.88256"
   version="1.1"
   id="svg1"
   inkscape:version="1.3.2 (091e20ef0f, 2023-11-25)"
   sodipodi:docname="lvs.svg"
   xmlns:inkscape="http://www.inkscape.org/namespaces/inkscape"
   xmlns:sodipodi="http://sodipodi.sourceforge.net/DTD/sodipodi-0.dtd"
   xmlns="http://www.w3.org/2000/svg"
   xmlns:svg="http://www.w3.org/2000/svg">
  <sodipodi:namedview
     id="namedview1"
     pagecolor="#ffffff"
     bordercolor="#000000"
     borderopacity="0.25"
     inkscape:showpageshadow="2"
     inkscape:pageopacity="0.0"
     inkscape:pagecheckerboard="0"
     inkscape:deskcolor="#d1d1d1"
     inkscape:document-units="mm"
     inkscape:zoom="0.82492985"
     inkscape:cx="341.24114"
     inkscape:cy="346.69615"
     inkscape:window-width="1870"
     inkscape:window-height="1172"
     inkscape:window-x="0"
     inkscape:window-y="0"
     inkscape:window-maximized="1"
     inkscape:current-layer="layer1" />
  <defs
     id="defs1">
    <marker
       style="overflow:visible"
       id="Triangle"
       refX="0"
       refY="0"
       orient="auto"
       inkscape:stockid="Triangle arrow"
       markerWidth="1.5"
       markerHeight="1.5"
       viewBox="0 0 1 1"
       inkscape:isstock="true"
       inkscape:collect="always"
       preserveAspectRatio="xMidYMid">
      <path
         transform="scale(0.5)"
         style="fill:context-stroke;fill-rule:evenodd;stroke:context-stroke;stroke-width:1pt"
         d="M 5.77,0 -2.88,5 V -5 Z"
         id="path135" />
    </marker>
    <clipPath
       clipPathUnits="userSpaceOnUse"
       id="clipPath1">
      <path
         id="path1"
         style="display:inline;fill:#ff2a2a;stroke:#ff2a2a;stroke-width:0.631941"
         d="M -0.91567757,36.547132 H 210.91567 V 181.49023 H -0.91567757 Z" />
    </clipPath>
  </defs>
  <g
     inkscape:label="Layer 1"
     inkscape:groupmode="layer"
     id="layer1"
     transform="translate(0.85514899,-36.607661)">
    <g
       id="g288"
       clip-path="url(#clipPath1)">
      <path
         id="path275"
         style="fill:none;stroke:#bebebe;stroke-width:0.352778;stroke-opacity:1"
         d="M 39.852982,183.16511 A 65.147018,34.488731 0 0 1 105,148.67638 65.147018,34.488731 0 0 1 170.14702,183.16511 65.147018,34.488731 0 0 1 105,217.65385 65.147018,34.488731 0 0 1 39.852982,183.16511 v 0" />
      <path
         id="path274"
         style="fill:none;stroke:#bebebe;stroke-width:0.352778;stroke-opacity:1"
         d="M 30.089088,188.33411 A 74.910912,39.657726 0 0 1 105,148.67638 74.910912,39.657726 0 0 1 179.91091,188.33411 74.910912,39.657726 0 0 1 105,227.99183 74.910912,39.657726 0 0 1 30.089088,188.33411 v 0" />
      <path
         id="path273"
         style="fill:none;stroke:#bebebe;stroke-width:0.352778;stroke-opacity:1"
         d="M 20.325233,193.50308 A 84.674767,44.826694 0 0 1 105,148.67639 84.674767,44.826694 0 0 1 189.67477,193.50308 84.674767,44.826694 0 0 1 105,238.32978 84.674767,44.826694 0 0 1 20.325233,193.50308 v 0" />
      <path
         id="path272"
         style="fill:none;stroke:#bebebe;stroke-width:0.352778;stroke-opacity:1"
         d="M 10.553596,198.67618 A 94.446404,49.999779 0 0 1 105,148.6764 94.446404,49.999779 0 0 1 199.4464,198.67618 94.446404,49.999779 0 0 1 105,248.67596 94.446404,49.999779 0 0 1 10.553596,198.67618 v 0" />
      <path
         id="path271"
         style="fill:none;stroke:#bebebe;stroke-width:0.352778;stroke-opacity:1"
         d="m -0.39124796,208.7466 a 105.67876,55.946167 0 0 1 -0.28750875,-4.12403 105.67876,55.946167 0 0 1 0.28748057,-4.12382" />
      <path
         id="path270"
         style="fill:none;stroke:#bebebe;stroke-width:0.352778;stroke-opacity:1"
         d="M 210.03865,210.77095 A 105.67876,55.946167 0 0 1 105,260.56874 105.67876,55.946167 0 0 1 -0.39124796,208.7466" />
      <path
         id="path269"
         style="fill:none;stroke:#bebebe;stroke-width:0.352778;stroke-opacity:1"
         d="m 210.39142,200.49979 a 105.67876,55.946167 0 0 1 0.28734,4.12278 105.67876,55.946167 0 0 1 -0.64011,6.14838" />
      <path
         id="path268"
         style="fill:none;stroke:#bebebe;stroke-width:0.352778;stroke-opacity:1"
         d="M -0.39127614,200.49875 A 105.67876,55.946167 0 0 1 105,148.67641 105.67876,55.946167 0 0 1 210.39142,200.49979" />
      <path
         id="path264"
         style="fill:none;stroke:#bebebe;stroke-width:0.352778;stroke-opacity:1"
         d="M -0.39594859,183.78356 A 116.91146,61.892746 0 0 1 105,148.67641 116.91146,61.892746 0 0 1 210.39595,183.78356" />
      <path
         id="path260"
         style="fill:none;stroke:#bebebe;stroke-width:0.352778;stroke-opacity:1"
         d="M -0.14700437,177.73917 A 128.14417,67.839317 0 0 1 105,148.67638 a 128.14417,67.839317 0 0 1 105.01835,28.9652" />
      <path
         id="path256"
         style="fill:none;stroke:#bebebe;stroke-width:0.352778;stroke-opacity:1"
         d="M -0.32317254,174.13617 A 139.37686,73.785896 0 0 1 105,148.67638 139.37686,73.785896 0 0 1 210.02814,173.95655" />
      <path
         id="path250"
         style="fill:none;stroke:#bebebe;stroke-width:0.352778;stroke-opacity:1"
         d="M -0.09436343,171.29658 A 150.60957,79.732468 0 0 1 105,148.67641 150.60957,79.732468 0 0 1 210.09437,171.29659" />
      <path
         id="path248"
         style="fill:none;stroke:#bebebe;stroke-width:0.352778;stroke-opacity:1"
         d="M -0.05135678,169.17893 A 161.84229,85.679047 0 0 1 105,148.67641 161.84229,85.679047 0 0 1 210.05138,169.17894" />
      <path
         id="path247"
         style="fill:none;stroke:#bebebe;stroke-width:0.352778;stroke-opacity:1"
         d="M 49.625034,177.9918 A 55.374966,29.315422 0 0 1 105,148.67638 55.374966,29.315422 0 0 1 160.37497,177.9918 55.374966,29.315422 0 0 1 105,207.30723 55.374966,29.315422 0 0 1 49.625034,177.9918 v 0" />
      <path
         id="path246"
         style="fill:none;stroke:#bebebe;stroke-width:0.352778;stroke-opacity:1"
         d="M 59.397091,172.81851 A 45.602909,24.142109 0 0 1 105,148.6764 45.602909,24.142109 0 0 1 150.60291,172.81851 45.602909,24.142109 0 0 1 105,196.96062 45.602909,24.142109 0 0 1 59.397091,172.81851 v 0" />
      <path
         id="path245"
         style="fill:none;stroke:#bebebe;stroke-width:0.352778;stroke-opacity:1"
         d="M 69.16914,167.64517 A 35.83086,18.968801 0 0 1 105,148.67637 35.83086,18.968801 0 0 1 140.83086,167.64517 35.83086,18.968801 0 0 1 105,186.61397 35.83086,18.968801 0 0 1 69.16914,167.64517 v 0" />
      <path
         id="path244"
         style="fill:none;stroke:#bebebe;stroke-width:0.352778;stroke-opacity:1"
         d="M 78.941193,162.47191 A 26.058807,13.795492 0 0 1 105,148.67642 26.058807,13.795492 0 0 1 131.05881,162.47191 26.058807,13.795492 0 0 1 105,176.2674 26.058807,13.795492 0 0 1 78.941193,162.47191 v 0" />
      <path
         id="path243"
         style="fill:none;stroke:#bebebe;stroke-width:0.352778;stroke-opacity:1"
         d="M 88.713245,157.29857 A 16.286755,8.6221828 0 0 1 105,148.67638 16.286755,8.6221828 0 0 1 121.28675,157.29857 16.286755,8.6221828 0 0 1 105,165.92075 16.286755,8.6221828 0 0 1 88.713245,157.29857 v 0" />
      <path
         id="path275-5"
         style="fill:none;stroke:#bebebe;stroke-width:0.352778;stroke-opacity:1"
         d="M 39.852979,114.18768 A 65.147018,34.488731 0 0 0 105,148.67641 65.147018,34.488731 0 0 0 170.14702,114.18768 65.147018,34.488731 0 0 0 105,79.69894 65.147018,34.488731 0 0 0 39.852979,114.18768 v 0" />
      <path
         id="path273-5"
         style="fill:none;stroke:#bebebe;stroke-width:0.352778;stroke-opacity:1"
         d="M 20.32523,103.84971 A 84.674767,44.826694 0 0 0 105,148.6764 84.674767,44.826694 0 0 0 189.67477,103.84971 84.674767,44.826694 0 0 0 105,59.02301 84.674767,44.826694 0 0 0 20.32523,103.84971 v 0" />
      <path
         id="path272-6"
         style="fill:none;stroke:#bebebe;stroke-width:0.352778;stroke-opacity:1"
         d="M 10.553593,98.67661 A 94.446404,49.999779 0 0 0 105,148.67639 94.446404,49.999779 0 0 0 199.4464,98.67661 94.446404,49.999779 0 0 0 105,48.67683 94.446404,49.999779 0 0 0 10.553593,98.67661 v 0" />
      <path
         id="path271-2"
         style="fill:none;stroke:#bebebe;stroke-width:0.352778;stroke-opacity:1"
         d="m -0.391251,88.60619 a 105.67876,55.946167 0 0 0 -0.287509,4.12403 105.67876,55.946167 0 0 0 0.287481,4.12382" />
      <path
         id="path270-9"
         style="fill:none;stroke:#bebebe;stroke-width:0.352778;stroke-opacity:1"
         d="M 210.03865,86.58184 A 105.67876,55.946167 0 0 0 105,36.78405 105.67876,55.946167 0 0 0 -0.391251,88.60619" />
      <path
         id="path269-1"
         style="fill:none;stroke:#bebebe;stroke-width:0.352778;stroke-opacity:1"
         d="m 210.39142,96.853 a 105.67876,55.946167 0 0 0 0.28734,-4.12278 105.67876,55.946167 0 0 0 -0.64011,-6.14838" />
      <path
         id="path268-2"
         style="fill:none;stroke:#bebebe;stroke-width:0.352778;stroke-opacity:1"
         d="M -0.391279,96.85404 A 105.67876,55.946167 0 0 0 105,148.67638 105.67876,55.946167 0 0 0 210.39142,96.853" />
      <path
         id="path264-7"
         style="fill:none;stroke:#bebebe;stroke-width:0.352778;stroke-opacity:1"
         d="M -0.395952,113.56923 A 116.91146,61.892746 0 0 0 105,148.67638 116.91146,61.892746 0 0 0 210.39595,113.56923" />
      <path
         id="path260-0"
         style="fill:none;stroke:#bebebe;stroke-width:0.352778;stroke-opacity:1"
         d="M -0.147007,119.61362 A 128.14417,67.839317 0 0 0 105,148.67641 128.14417,67.839317 0 0 0 210.01835,119.71121" />
      <path
         id="path256-9"
         style="fill:none;stroke:#bebebe;stroke-width:0.352778;stroke-opacity:1"
         d="M -0.323176,123.21662 A 139.37686,73.785896 0 0 0 105,148.67641 139.37686,73.785896 0 0 0 210.02814,123.39624" />
      <path
         id="path250-3"
         style="fill:none;stroke:#bebebe;stroke-width:0.352778;stroke-opacity:1"
         d="M -0.094366,126.05621 A 150.60957,79.732468 0 0 0 105,148.67638 150.60957,79.732468 0 0 0 210.09437,126.0562" />
      <path
         id="path248-6"
         style="fill:none;stroke:#bebebe;stroke-width:0.352778;stroke-opacity:1"
         d="M -0.05136,128.17386 A 161.84229,85.679047 0 0 0 105,148.67638 161.84229,85.679047 0 0 0 210.05138,128.17385" />
      <path
         id="path247-0"
         style="fill:none;stroke:#bebebe;stroke-width:0.352778;stroke-opacity:1"
         d="M 49.62503,119.36099 A 55.374966,29.315422 0 0 0 105,148.67641 55.374966,29.315422 0 0 0 160.37497,119.36099 55.374966,29.315422 0 0 0 105,90.04556 55.374966,29.315422 0 0 0 49.62503,119.36099 v 0" />
      <path
         id="path246-6"
         style="fill:none;stroke:#bebebe;stroke-width:0.352778;stroke-opacity:1"
         d="M 59.39709,124.53428 A 45.602909,24.142109 0 0 0 105,148.67639 45.602909,24.142109 0 0 0 150.60291,124.53428 45.602909,24.142109 0 0 0 105,100.39217 45.602909,24.142109 0 0 0 59.39709,124.53428 v 0" />
      <path
         id="path245-2"
         style="fill:none;stroke:#bebebe;stroke-width:0.352778;stroke-opacity:1"
         d="M 69.16914,129.70762 A 35.83086,18.968801 0 0 0 105,148.67642 35.83086,18.968801 0 0 0 140.83086,129.70762 35.83086,18.968801 0 0 0 105,110.73882 35.83086,18.968801 0 0 0 69.16914,129.70762 v 0" />
      <path
         id="path244-6"
         style="fill:none;stroke:#bebebe;stroke-width:0.352778;stroke-opacity:1"
         d="M 78.94119,134.88088 A 26.058807,13.795492 0 0 0 105,148.67637 26.058807,13.795492 0 0 0 131.05881,134.88088 26.058807,13.795492 0 0 0 105,121.08539 26.058807,13.795492 0 0 0 78.94119,134.88088 v 0" />
      <path
         id="path243-1"
         style="fill:none;stroke:#bebebe;stroke-width:0.352778;stroke-opacity:1"
         d="M 88.71324,140.05422 A 16.286755,8.6221828 0 0 0 105,148.67641 16.286755,8.6221828 0 0 0 121.28675,140.05422 16.286755,8.6221828 0 0 0 105,131.43204 16.286755,8.6221828 0 0 0 88.71324,140.05422 v 0" />
    </g>
  </g>
  <g
     inkscape:groupmode="layer"
     id="layer2"
     inkscape:label="Layer 2"
     style="display:inline">
    <path
       id="path4"
       style="fill:none;stroke:#bebebe;stroke-width:0.352778;stroke-opacity:1"
       d="M 173.27785,92.703415 A 74.910912,39.657726 0 0 0 105,69.36096 74.910912,39.657726 0 0 0 82.760995,71.148846"
       transform="translate(0.855149,-36.60766)" />
    <path
       id="path3"
       style="fill:none;stroke:#bebebe;stroke-width:0.352778;stroke-opacity:1"
       d="m 179.85412,110.56256 a 74.910912,39.657726 0 0 0 0.0568,-1.54388 74.910912,39.657726 0 0 0 -6.63306,-16.315265"
       transform="translate(0.855149,-36.60766)" />
    <path
       id="path2"
       style="fill:none;stroke:#bebebe;stroke-width:0.352778;stroke-opacity:1"
       d="m 105,148.67641 a 74.910912,39.657726 0 0 0 74.85412,-38.11385"
       transform="translate(0.855149,-36.60766)" />
    <path
       style="display:inline;fill:none;stroke:#ff2a2a;stroke-width:0.753;stroke-dasharray:none;stroke-opacity:1;marker-start:url(#Triangle)"
       d="M 69.196709,143.86219 C 79.833785,146.93198 92.032084,148.67641 105,148.67641"
       transform="translate(0.855149,-36.60766)"
       id="path8" />
    <path
       style="display:inline;fill:none;stroke:#ff2a2a;stroke-width:0.753;stroke-dasharray:none;stroke-opacity:1;marker-start:url(#Triangle)"
       d="m 43.744396,131.85245 c 6.61369,4.96343 15.325483,9.08721 25.452313,12.00974"
       transform="translate(0.855149,-36.60766)"
       id="path7" />
    <path
       style="display:inline;fill:none;stroke:#ff2a2a;stroke-width:0.753;stroke-dasharray:none;stroke-opacity:1;marker-start:url(#Triangle)"
       d="m 30.089085,109.01868 c -2e-6,8.50128 5.052821,16.3778 13.655311,22.83377"
       transform="translate(0.855149,-36.60766)"
       id="path6" />
    <path
       style="display:inline;fill:none;stroke:#ff2a2a;stroke-width:0.753;stroke-dasharray:none;stroke-opacity:1;marker-start:url(#Triangle)"
       d="M 52.228546,80.870175 C 38.387068,88.147307 30.089088,98.190276 30.089085,109.01868 v 0"
       transform="translate(0.855149,-36.60766)"
       id="path5" />
    <path
       style="display:inline;fill:none;stroke:#ff2a2a;stroke-width:0.753;stroke-dasharray:none;stroke-opacity:1;marker-start:url(#Triangle)"
       d="M 82.760995,71.148846 C 70.96646,73.090036 60.586806,76.475835 52.228546,80.870175"
       transform="translate(0.855149,-36.60766)"
       id="path274-3" />
  </g>
</svg>
